<svg width="64" height="64" xmlns="http://www.w3.org/2000/svg">

 <g>
  <title>background</title>
  <rect fill="none" id="canvas_background" height="402" width="582" y="-1" x="-1"/>
 </g>
 <g>
  <title>Layer 1</title>
  <path id="svg_1" fill="#37474F" d="m32,13c-2.757,0 -5,2.243 -5,5s2.243,5 5,5s5,-2.243 5,-5s-2.243,-5 -5,-5zm0,9c-2.209,0 -4,-1.791 -4,-4s1.791,-4 4,-4s4,1.791 4,4s-1.791,4 -4,4z"/>
  <path id="svg_2" fill="#37474F" d="m45,23c0,-7.181 -5.819,-13 -13,-13s-13,5.819 -13,13c0,5.015 2.842,9.358 7,11.526l0,19.474l5,5l7,-9l-3,-3l0,-6l3,-3l0,-3.474c4.158,-2.168 7,-6.511 7,-11.526zm-14.094,34.492l-0.906,-0.907l0,-21.585c0,-0.551 0.449,-1 1,-1s1,0.449 1,1l0,21.085l-1.094,1.407zm6.632,-23.852l-0.538,0.28l0,0.606l0,3.06l-2.707,2.707l-0.293,0.293l0,0.414l0,6l0,0.414l0.293,0.293l2.375,2.376l-3.668,4.717l0,-19.8c0,-1.103 -0.897,-2 -2,-2s-2,0.897 -2,2l0,20.586l-2,-2l0,-19.06l0,-0.606l-0.538,-0.28c-3.986,-2.079 -6.462,-6.156 -6.462,-10.64c0,-6.617 5.383,-12 12,-12s12,5.383 12,12c0,4.484 -2.476,8.561 -6.462,10.64z"/>
  <path id="svg_3" fill="#37474F" d="m24,9.144l-0.5,-0.866c-1.242,0.717 -2.343,1.581 -3.328,2.538l-2.889,-4.816l-9.283,0l0,-1l-3,0l0,3l3,0l0,-1l8.717,0l2.727,4.544c-0.915,1.004 -1.683,2.112 -2.323,3.283l-2.871,-3.827l-2.25,0l0,-1l-3,0l0,3l3,0l0,-1l1.75,0l2.85,3.8l0.026,-0.02c-0.484,1.034 -0.858,2.113 -1.126,3.22l-3.232,0l-2,-3l-2.268,0l0,-1l-3,0l0,3l3,0l0,-1l1.732,0l2,3l3.55,0c-0.236,1.313 -0.311,2.655 -0.233,4l-3.358,0l-2,4l-1.691,0l0,-1l-3,0l0,3l3,0l0,-1l2.309,0l2,-4l2.814,0c0.261,2.228 0.964,4.438 2.155,6.5l0.866,-0.501c-4.419,-7.652 -1.797,-17.437 5.856,-21.855zm-17,-2.144l-1,0l0,-1l1,0l0,1zm4,5l-1,0l0,-1l1,0l0,1zm-4,5l-1,0l0,-1l1,0l0,1zm0,12l-1,0l0,-1l1,0l0,1z"/>
  <path id="svg_4" fill="#37474F" d="m59,19l0,-3l-3,0l0,1l-2.309,0l-2,4l-2.814,0c-0.261,-2.228 -0.964,-4.438 -2.155,-6.501l-0.866,0.501c4.419,7.652 1.797,17.438 -5.856,21.855l0.5,0.866c1.229,-0.709 2.32,-1.563 3.298,-2.508l2.893,5.787l9.309,0l0,1l3,0l0,-3l-3,0l0,1l-8.691,0l-2.765,-5.53c0.907,-0.993 1.669,-2.088 2.308,-3.246l2.865,4.776l2.283,0l0,1l3,0l0,-3l-3,0l0,1l-1.717,0l-2.854,-4.757l-0.088,0.053c0.5,-1.057 0.884,-2.162 1.159,-3.295l3.191,0l2,4l2.309,0l0,1l3,0l0,-3l-3,0l0,1l-1.691,0l-2,-4l-3.592,0c0.237,-1.313 0.311,-2.655 0.234,-4l3.358,0l2,-4l1.691,0l0,1l3,0l0,-0.001zm-2,-2.001l1,0l0,1l-1,0l0,-1zm0,23.001l0,0l1,-0.001l0,1l-1,0l0,-0.999zm-4,-5.001l1,0l0,1l-1,0l0,-1zm4,-4.999l0,0l1,-0.001l0,1l-1,0l0,-0.999z"/>
 </g>
</svg>